<svg xmlns="http://www.w3.org/2000/svg" viewBox="0 0 100 100" width="100" height="100">
  <!-- Light mint green circle background -->
  <circle cx="50" cy="50" r="48" fill="#A8E6CF"/>
  
  <!-- Dark navy blue stylized "A" shape -->
  <!-- Two thick parallel arms converging upwards, flat top, rounded bottom -->
  <path d="M 32 72 
           Q 32 68 33 60
           Q 35 45 38 35
           Q 42 22 45 18
           L 55 18
           Q 58 22 62 35
           Q 65 45 67 60
           Q 68 68 68 72
           Q 68 75 65 75
           Q 62 75 60 70
           Q 58 65 55 60
           Q 52 55 50 50
           Q 48 55 45 60
           Q 42 65 40 70
           Q 38 75 35 75
           Q 32 75 32 72 Z" 
        fill="#1A365D"/>
</svg>
